<svg width="206" height="204" viewBox="0 0 206 204" fill="none" xmlns="http://www.w3.org/2000/svg">
<path d="M103 89.75L103 119.75" stroke="white" stroke-width="3" stroke-linecap="round"/>
<path d="M118 104.75L87.9999 104.75" stroke="white" stroke-width="3" stroke-linecap="round"/>
<path opacity="0.5" d="M30.9292 164.349C12.1265 145.547 3.0434 123.916 3.342 102.305C3.64062 80.6921 13.3229 59.0573 32.1294 40.2508C51.6365 20.7437 76.6468 8.59357 101.436 6.65359C124.445 4.85288 147.267 11.8472 165.349 29.9292C202.946 67.5264 206.039 131.581 168.47 169.15C148.417 189.202 119.774 191.289 93.0122 188.615C69.7208 186.288 48.3915 181.812 30.9292 164.349Z" stroke="#D9D9D9" stroke-width="0.678924"/>
<path opacity="0.5" d="M198.049 108.874C198.049 135.465 189.177 157.183 173.684 172.253C158.191 187.325 136.046 195.776 109.45 195.776C81.8626 195.776 55.5862 186.683 36.686 170.526C19.1427 155.53 7.95067 134.446 7.95067 108.874C7.95067 55.7038 51.0569 8.22374 104.188 8.22374C132.547 8.22374 154.276 27.0018 171.309 47.8163C186.132 65.9316 198.049 84.1789 198.049 108.874Z" stroke="#D9D9D9" stroke-width="0.678924"/>
<path opacity="0.5" d="M134.24 11.9686C159.925 18.8509 178.607 33.042 189.154 51.9071C199.702 70.7735 202.134 94.3509 195.25 120.041C188.11 146.688 172.526 169.716 152.028 183.79C133.002 196.854 109.74 202.208 85.0393 195.59C33.6807 181.828 -1.02488 127.902 12.7265 76.5813C20.0662 49.1891 43.8284 33.0601 68.342 21.9952C89.6768 12.3651 110.387 5.57695 134.24 11.9686Z" stroke="#D9D9D9" stroke-width="0.678924"/>
</svg>
