<svg width="206" height="204" viewBox="0 0 206 204" fill="none" xmlns="http://www.w3.org/2000/svg">
<path fill-rule="evenodd" clip-rule="evenodd" d="M84.7708 91.5835C84.7708 90.7206 85.4704 90.021 86.3333 90.021H119.667C120.53 90.021 121.229 90.7206 121.229 91.5835C121.229 92.4464 120.53 93.146 119.667 93.146H86.3333C85.4704 93.146 84.7708 92.4464 84.7708 91.5835Z" fill="white"/>
<path opacity="0.7" d="M84.7708 102C84.7708 101.137 85.4704 100.438 86.3333 100.438H109.25C110.113 100.438 110.812 101.137 110.812 102C110.812 102.863 110.113 103.562 109.25 103.562H86.3333C85.4704 103.562 84.7708 102.863 84.7708 102Z" fill="white"/>
<path opacity="0.4" d="M84.7708 112.417C84.7708 111.554 85.4704 110.854 86.3333 110.854H96.75C97.6129 110.854 98.3125 111.554 98.3125 112.417C98.3125 113.279 97.6129 113.979 96.75 113.979H86.3333C85.4704 113.979 84.7708 113.279 84.7708 112.417Z" fill="white"/>
<path opacity="0.5" d="M30.9292 164.349C12.1265 145.546 3.0434 123.916 3.342 102.304C3.64062 80.6918 13.3229 59.0571 32.1294 40.2505C51.6365 20.7435 76.6468 8.59333 101.436 6.65334C124.445 4.85263 147.267 11.847 165.349 29.929C202.946 67.5261 206.039 131.58 168.47 169.15C148.417 189.202 119.774 191.289 93.0122 188.615C69.7208 186.287 48.3915 181.811 30.9292 164.349Z" stroke="#D9D9D9" stroke-width="0.678924"/>
<path opacity="0.5" d="M198.049 108.874C198.049 135.465 189.177 157.183 173.684 172.253C158.191 187.325 136.046 195.776 109.45 195.776C81.8626 195.776 55.5862 186.683 36.686 170.526C19.1427 155.53 7.95067 134.446 7.95067 108.874C7.95067 55.7038 51.0569 8.22374 104.188 8.22374C132.547 8.22374 154.276 27.0018 171.309 47.8163C186.132 65.9316 198.049 84.1789 198.049 108.874Z" stroke="#D9D9D9" stroke-width="0.678924"/>
<path opacity="0.5" d="M134.24 11.9683C159.925 18.8506 178.607 33.0418 189.154 51.9069C199.702 70.7733 202.134 94.3507 195.25 120.041C188.11 146.688 172.526 169.716 152.028 183.79C133.002 196.854 109.74 202.208 85.0393 195.59C33.6807 181.828 -1.02488 127.902 12.7265 76.581C20.0662 49.1888 43.8284 33.0599 68.342 21.9949C89.6768 12.3649 110.387 5.5767 134.24 11.9683Z" stroke="#D9D9D9" stroke-width="0.678924"/>
</svg>
