<svg xmlns="http://www.w3.org/2000/svg" width="24" height="24" viewBox="0 0 24 24" fill="none">
  <path d="M14.5 21.9913V18.5C14.5 17.5654 14.5 17.0981 14.299 16.75C14.1674 16.522 13.978 16.3326 13.75 16.201C13.4019 16 12.9346 16 12 16C11.0654 16 10.5981 16 10.25 16.201C10.022 16.3326 9.83261 16.522 9.70096 16.75C9.5 17.0981 9.5 17.5654 9.5 18.5V21.9913H14.5Z" fill="white"/>
  <path opacity="0.5" fill-rule="evenodd" clip-rule="evenodd" d="M5.73228 11.9997C4.8415 11.9997 4.05348 11.6237 3.50024 11.0326V13.9998C3.50024 17.771 3.50024 19.6566 4.67182 20.8282C5.6149 21.7713 7.02068 21.9552 9.50024 21.9911H14.5002C16.9798 21.9552 18.3856 21.7713 19.3287 20.8282C20.5002 19.6566 20.5002 17.771 20.5002 13.9998V11.0337C19.9471 11.6241 19.1594 11.9997 18.2692 11.9997C16.6976 11.9997 15.3816 10.8088 15.2253 9.24499L15.1523 8.51709C15.3387 10.3817 13.8745 11.9997 12.0005 11.9997C10.1393 11.9997 8.68214 10.4035 8.84524 8.55487L8.77622 9.24499C8.61984 10.8088 7.30391 11.9997 5.73228 11.9997ZM14.5002 18.4998V21.9911H9.50024V18.4998C9.50024 17.5651 9.50024 17.0978 9.70121 16.7498C9.83286 16.5217 10.0222 16.3324 10.2502 16.2007C10.5983 15.9998 11.0657 15.9998 12.0003 15.9998C12.9349 15.9998 13.4022 15.9998 13.7502 16.2007C13.9783 16.3324 14.1676 16.5217 14.2993 16.7498C14.5002 17.0978 14.5002 17.5651 14.5002 18.4998Z" fill="white"/>
  <path d="M9.4998 2H14.4998L15.1515 8.51737C15.338 10.382 13.8737 12 11.9998 12C10.1259 12 8.6616 10.382 8.84806 8.51737L9.4998 2Z" fill="white"/>
  <path opacity="0.7" d="M3.32975 5.35133C3.50783 4.46093 3.59687 4.01573 3.77791 3.65484C4.15938 2.89439 4.84579 2.33168 5.66628 2.10675C6.05567 2 6.50969 2 7.41771 2H9.50002L8.77549 9.24527C8.61911 10.8091 7.30318 12 5.73155 12C3.8011 12 2.35324 10.2339 2.73183 8.34093L3.32975 5.35133Z" fill="white"/>
  <path opacity="0.7" d="M20.6703 5.35133C20.4922 4.46093 20.4031 4.01573 20.2221 3.65484C19.8406 2.89439 19.1542 2.33168 18.3337 2.10675C17.9443 2 17.4903 2 16.5823 2H14.5L15.2245 9.24527C15.3809 10.8091 16.6968 12 18.2685 12C20.1989 12 21.6468 10.2339 21.2682 8.34093L20.6703 5.35133Z" fill="white"/>
</svg>