<svg xmlns="http://www.w3.org/2000/svg" width="25" height="24" viewBox="0 0 25 24" fill="none">
  <path opacity="0.5" d="M22.5 12C22.5 17.5228 18.0228 22 12.5 22C6.97715 22 2.5 17.5228 2.5 12C2.5 6.47715 6.97715 2 12.5 2C18.0228 2 22.5 6.47715 22.5 12Z" fill="white"/>
  <path d="M13.25 9C13.25 8.58579 12.9142 8.25 12.5 8.25C12.0858 8.25 11.75 8.58579 11.75 9L11.75 11.25H9.5C9.08579 11.25 8.75 11.5858 8.75 12C8.75 12.4142 9.08579 12.75 9.5 12.75H11.75V15C11.75 15.4142 12.0858 15.75 12.5 15.75C12.9142 15.75 13.25 15.4142 13.25 15L13.25 12.75H15.5C15.9142 12.75 16.25 12.4142 16.25 12C16.25 11.5858 15.9142 11.25 15.5 11.25H13.25V9Z" fill="white"/>
</svg>