<svg xmlns="http://www.w3.org/2000/svg" width="73" height="73" viewBox="0 0 73 73" fill="none">
  <path opacity="0.5" d="M3.04169 36.4998C3.04169 20.7274 3.04169 12.8412 7.94155 7.94136C12.8414 3.0415 20.7276 3.0415 36.5 3.0415C52.2724 3.0415 60.1586 3.0415 65.0585 7.94136C69.9583 12.8412 69.9583 20.7274 69.9583 36.4998C69.9583 52.2722 69.9583 60.1584 65.0585 65.0583C60.1586 69.9582 52.2724 69.9582 36.5 69.9582C20.7276 69.9582 12.8414 69.9582 7.94155 65.0583C3.04169 60.1584 3.04169 52.2722 3.04169 36.4998Z" fill="#76899B"/>
  <path d="M42.3599 43.5012C43.1051 42.92 43.781 42.2441 45.1328 40.8923L61.9847 24.0404C62.3921 23.633 62.2057 22.9312 61.6613 22.7424C59.6721 22.0523 57.0845 20.7566 54.664 18.3361C52.2435 15.9156 50.9478 13.328 50.2577 11.3388C50.0689 10.7945 49.3671 10.608 48.9597 11.0154L32.1078 27.8673L32.1078 27.8674C30.756 29.2191 30.0801 29.895 29.4989 30.6402C28.8132 31.5193 28.2253 32.4705 27.7457 33.4769C27.3391 34.3301 27.0368 35.2369 26.4323 37.0505L25.6512 39.3939L24.4091 43.1201L23.2445 46.614C22.947 47.5065 23.1793 48.4904 23.8445 49.1556C24.5097 49.8208 25.4936 50.0531 26.3861 49.7556L29.88 48.591L33.6062 47.3489L35.9496 46.5678L35.9497 46.5678C37.7632 45.9633 38.67 45.661 39.5232 45.2544C40.5296 44.7748 41.4808 44.1869 42.3599 43.5012Z" fill="#76899B"/>
  <path d="M67.261 18.764C70.8578 15.1673 70.8578 9.33581 67.261 5.73906C63.6643 2.14232 57.8328 2.14232 54.2361 5.73906L53.4357 6.5394C53.1616 6.81351 53.0246 6.95056 52.9633 7.14511C52.9019 7.33966 52.935 7.52701 53.0012 7.90171C53.0281 8.0537 53.052 8.18802 53.0652 8.26161C53.1474 8.7194 53.2997 9.38868 53.5768 10.1873C54.1309 11.7844 55.1773 13.881 57.1482 15.8519C59.1191 17.8228 61.2157 18.8692 62.8128 19.4233C63.6114 19.7004 64.2807 19.8527 64.7385 19.9349C64.8121 19.9481 64.9464 19.972 65.0984 19.9989C65.4731 20.0651 65.6604 20.0982 65.855 20.0368C66.0495 19.9755 66.1866 19.8385 66.4607 19.5644L67.261 18.764Z" fill="#76899B"/>
</svg>