<svg xmlns="http://www.w3.org/2000/svg" width="34" height="34" viewBox="0 0 34 34" fill="none">
  <path opacity="0.5" d="M2.83331 17.2888C2.83331 14.0469 2.83331 12.4259 3.56885 11.0821C4.30438 9.73838 5.64815 8.9044 8.33569 7.23643L11.169 5.47799C14.0099 3.71483 15.4304 2.83325 17 2.83325C18.5696 2.83325 19.99 3.71483 22.8309 5.47798L25.6643 7.23643C28.3518 8.9044 29.6956 9.73838 30.4311 11.0821C31.1666 12.4259 31.1666 14.0469 31.1666 17.2888V19.4436C31.1666 24.9699 31.1666 27.733 29.5069 29.4498C27.8472 31.1666 25.1759 31.1666 19.8333 31.1666H14.1666C8.82406 31.1666 6.15277 31.1666 4.49304 29.4498C2.83331 27.733 2.83331 24.9699 2.83331 19.4436V17.2888Z" fill="#7C55FB"/>
  <path d="M13.3828 21.8132C12.9114 21.4638 12.2459 21.5627 11.8965 22.0341C11.5471 22.5055 11.6459 23.171 12.1174 23.5204C13.4949 24.5415 15.1797 25.146 17.0001 25.146C18.8204 25.146 20.5052 24.5415 21.8828 23.5204C22.3542 23.171 22.4531 22.5055 22.1036 22.0341C21.7542 21.5627 21.0888 21.4638 20.6174 21.8132C19.5856 22.5781 18.3401 23.021 17.0001 23.021C15.66 23.021 14.4146 22.5781 13.3828 21.8132Z" fill="#7C55FB"/>
</svg>