<svg xmlns="http://www.w3.org/2000/svg" width="34" height="34" viewBox="0 0 34 34" fill="none">
  <path opacity="0.5" d="M2.83331 17.289C2.83331 14.0471 2.83331 12.4261 3.56885 11.0824C4.30438 9.73862 5.64815 8.90464 8.33569 7.23668L11.169 5.47823C14.0099 3.71507 15.4304 2.8335 17 2.8335C18.5696 2.8335 19.99 3.71507 22.8309 5.47823L25.6643 7.23667C28.3518 8.90464 29.6956 9.73862 30.4311 11.0824C31.1666 12.4261 31.1666 14.0471 31.1666 17.289V19.4438C31.1666 24.9701 31.1666 27.7332 29.5069 29.45C27.8472 31.1668 25.1759 31.1668 19.8333 31.1668H14.1666C8.82406 31.1668 6.15277 31.1668 4.49304 29.45C2.83331 27.7332 2.83331 24.9701 2.83331 19.4438V17.289Z" fill="#76899B"/>
  <path d="M13.3828 21.813C12.9114 21.4636 12.2459 21.5625 11.8965 22.0339C11.5471 22.5053 11.6459 23.1707 12.1174 23.5201C13.4949 24.5413 15.1797 25.1457 17.0001 25.1457C18.8204 25.1457 20.5052 24.5413 21.8828 23.5201C22.3542 23.1707 22.4531 22.5053 22.1036 22.0339C21.7542 21.5625 21.0888 21.4636 20.6174 21.813C19.5856 22.5778 18.3401 23.0207 17.0001 23.0207C15.66 23.0207 14.4146 22.5778 13.3828 21.813Z" fill="#76899B"/>
</svg>