<svg xmlns="http://www.w3.org/2000/svg" width="14" height="14" viewBox="0 0 14 14" fill="none">
  <path opacity="0.5" fill-rule="evenodd" clip-rule="evenodd" d="M9.46097 2.82174L11.1904 4.55285C12.364 5.72762 12.9508 6.315 12.8139 6.94819C12.677 7.58137 11.9 7.87327 10.3461 8.45709L9.27045 8.86122C8.85429 9.01758 8.64621 9.09576 8.48561 9.23482C8.4153 9.2957 8.35239 9.36464 8.29815 9.44023C8.17428 9.61286 8.11526 9.82735 7.99723 10.2563C7.72878 11.232 7.59455 11.7198 7.27495 11.9022C7.14025 11.9791 6.98784 12.0194 6.8328 12.0192C6.46491 12.0186 6.10746 11.6608 5.39257 10.9452L4.53741 10.0892L3.90795 9.45932L3.08278 8.63316C2.37241 7.92209 2.01722 7.56656 2.01491 7.20083C2.01391 7.04272 2.05497 6.8872 2.13386 6.75022C2.31635 6.43336 2.80062 6.29986 3.76918 6.03284C4.1989 5.91437 4.41376 5.85513 4.58646 5.7308C4.66396 5.67501 4.73444 5.61007 4.7964 5.53738C4.93446 5.37537 5.0112 5.16594 5.16468 4.74706L5.55432 3.68362C6.13002 2.11241 6.41787 1.3268 7.05275 1.18674C7.68763 1.04667 8.27874 1.63836 9.46097 2.82174Z" fill="white"/>
  <path d="M1.92646 12.7029L4.53749 10.0894L3.90804 9.45947L1.29709 12.0729C1.1233 12.2469 1.1233 12.5289 1.29709 12.7029C1.47089 12.8768 1.75266 12.8768 1.92646 12.7029Z" fill="white"/>
</svg>