<svg xmlns="http://www.w3.org/2000/svg" width="14" height="14" viewBox="0 0 14 14" fill="none">
  <path fill-rule="evenodd" clip-rule="evenodd" d="M2.96257 2.95687C5.17651 0.746044 8.77547 0.769551 11.0029 2.99704C13.2314 5.22548 13.254 8.82658 11.0403 11.0403C8.82656 13.254 5.22546 13.2314 2.99701 11.003C1.67643 9.68239 1.13111 7.88078 1.36527 6.17238C1.39809 5.933 1.61875 5.76553 1.85813 5.79835C2.09752 5.83116 2.26498 6.05182 2.23217 6.29121C2.03385 7.73805 2.4954 9.26392 3.61573 10.3843C5.50835 12.2769 8.5554 12.2877 10.4215 10.4216C12.2877 8.55542 12.2768 5.50837 10.3842 3.61575C8.49259 1.72411 5.44768 1.71231 3.58129 3.57558L4.01745 3.57778C4.25907 3.57899 4.45396 3.77585 4.45274 4.01747C4.45153 4.25909 4.25467 4.45398 4.01305 4.45276L2.52814 4.4453C2.28824 4.4441 2.09405 4.24991 2.09285 4.01001L2.08539 2.5251C2.08417 2.28348 2.27906 2.08662 2.52068 2.08541C2.7623 2.08419 2.95916 2.27908 2.96037 2.5207L2.96257 2.95687Z" fill="white"/>
  <path opacity="0.5" d="M7 4.22949C7.24162 4.22949 7.4375 4.42537 7.4375 4.66699V6.81911L8.76769 8.1493C8.93855 8.32015 8.93855 8.59716 8.76769 8.76802C8.59684 8.93887 8.31983 8.93887 8.14897 8.76802L6.73335 7.3524C6.62396 7.243 6.5625 7.09463 6.5625 6.93992V4.66699C6.5625 4.42537 6.75838 4.22949 7 4.22949Z" fill="white"/>
</svg>