<svg xmlns="http://www.w3.org/2000/svg" width="35" height="34" viewBox="0 0 35 34" fill="none">
  <path opacity="0.5" d="M3.16663 9.84539C3.16663 8.59514 3.16663 7.97002 3.26487 7.4493C3.69737 5.15702 5.4904 3.36399 7.78267 2.9315C8.30339 2.83325 8.92852 2.83325 10.1788 2.83325C10.7266 2.83325 11.0005 2.83325 11.2637 2.85787C12.3985 2.96399 13.475 3.40989 14.3525 4.13731C14.5561 4.30604 14.7498 4.49971 15.1371 4.88706L15.9166 5.66659C17.0723 6.82227 17.6502 7.40012 18.3421 7.7851C18.7222 7.99659 19.1255 8.16361 19.5438 8.28285C20.3053 8.49992 21.1225 8.49992 22.7569 8.49992H23.2863C27.0154 8.49992 28.88 8.49992 30.092 9.58999C30.2035 9.69026 30.3096 9.79636 30.4099 9.90785C31.5 11.1198 31.5 12.9844 31.5 16.7136V19.8333C31.5 25.1758 31.5 27.8471 29.8402 29.5069C28.1805 31.1666 25.5092 31.1666 20.1666 31.1666H14.5C9.15737 31.1666 6.48608 31.1666 4.82635 29.5069C3.16663 27.8471 3.16663 25.1758 3.16663 19.8333V9.84539Z" fill="#76899B"/>
  <path d="M28.6664 8.83648C28.6651 8.41523 28.6591 8.16373 28.6303 7.94526C28.3793 6.03815 26.8785 4.53744 24.9714 4.28636C24.6953 4.25 24.3663 4.25 23.7084 4.25H14.483C14.6472 4.39721 14.8322 4.58214 15.1372 4.88714L15.9167 5.66667C17.0724 6.82235 17.6502 7.4002 18.3422 7.78519C18.7223 7.99667 19.1255 8.16369 19.5439 8.28293C20.3054 8.5 21.1226 8.5 22.757 8.5H23.2863C25.8066 8.5 27.4752 8.5 28.6664 8.83648Z" fill="#76899B"/>
  <path fill-rule="evenodd" clip-rule="evenodd" d="M17.6875 14.1667C17.6875 13.5799 18.1632 13.1042 18.75 13.1042H25.8333C26.4201 13.1042 26.8958 13.5799 26.8958 14.1667C26.8958 14.7536 26.4201 15.2292 25.8333 15.2292H18.75C18.1632 15.2292 17.6875 14.7536 17.6875 14.1667Z" fill="#76899B"/>
</svg>