<svg xmlns="http://www.w3.org/2000/svg" width="35" height="34" viewBox="0 0 35 34" fill="none">
  <path opacity="0.5" d="M3.16663 9.84564C3.16663 8.59539 3.16663 7.97026 3.26487 7.44954C3.69737 5.15727 5.4904 3.36424 7.78267 2.93174C8.30339 2.8335 8.92852 2.8335 10.1788 2.8335C10.7266 2.8335 11.0005 2.8335 11.2637 2.85811C12.3985 2.96423 13.475 3.41013 14.3525 4.13756C14.5561 4.30628 14.7498 4.49996 15.1371 4.88731L15.9166 5.66683C17.0723 6.82252 17.6502 7.40036 18.3421 7.78535C18.7222 7.99684 19.1255 8.16385 19.5438 8.28309C20.3053 8.50016 21.1225 8.50016 22.7569 8.50016H23.2863C27.0154 8.50016 28.88 8.50016 30.092 9.59024C30.2035 9.69051 30.3096 9.79661 30.4099 9.90809C31.5 11.1201 31.5 12.9847 31.5 16.7139V19.8335C31.5 25.1761 31.5 27.8474 29.8402 29.5071C28.1805 31.1668 25.5092 31.1668 20.1666 31.1668H14.5C9.15737 31.1668 6.48608 31.1668 4.82635 29.5071C3.16663 27.8474 3.16663 25.1761 3.16663 19.8335V9.84564Z" fill="#7C55FB"/>
  <path d="M28.6663 8.83648C28.665 8.41523 28.659 8.16373 28.6303 7.94526C28.3792 6.03815 26.8785 4.53744 24.9714 4.28636C24.6952 4.25 24.3662 4.25 23.7083 4.25H14.483C14.6472 4.39721 14.8321 4.58214 15.1371 4.88714L15.9166 5.66667C17.0723 6.82235 17.6502 7.4002 18.3421 7.78519C18.7223 7.99667 19.1255 8.16369 19.5438 8.28293C20.3053 8.5 21.1225 8.5 22.7569 8.5H23.2863C25.8065 8.5 27.4752 8.5 28.6663 8.83648Z" fill="#7C55FB"/>
  <path fill-rule="evenodd" clip-rule="evenodd" d="M17.6875 14.1665C17.6875 13.5797 18.1632 13.104 18.75 13.104H25.8333C26.4201 13.104 26.8958 13.5797 26.8958 14.1665C26.8958 14.7533 26.4201 15.229 25.8333 15.229H18.75C18.1632 15.229 17.6875 14.7533 17.6875 14.1665Z" fill="#7C55FB"/>
</svg>