<svg xmlns="http://www.w3.org/2000/svg" width="34" height="34" viewBox="0 0 34 34" fill="none">
  <path opacity="0.5" fill-rule="evenodd" clip-rule="evenodd" d="M20.2283 3.04893C19.7037 2.83325 19.0386 2.83325 17.7083 2.83325C16.3781 2.83325 15.713 2.83325 15.1884 3.04893C14.4888 3.33649 13.933 3.88807 13.6433 4.58232C13.511 4.89923 13.4593 5.2678 13.439 5.80541C13.4092 6.59547 13.001 7.32677 12.3111 7.72207C11.6212 8.11737 10.7789 8.1026 10.0746 7.73316C9.59534 7.48176 9.24784 7.34197 8.90515 7.29719C8.15446 7.19911 7.39526 7.401 6.79455 7.85845C6.34403 8.20154 6.01147 8.77319 5.34636 9.91649C4.68125 11.0598 4.3487 11.6314 4.27457 12.1902C4.17574 12.9352 4.37917 13.6887 4.84011 14.2848C5.0505 14.557 5.34618 14.7857 5.80508 15.0719C6.47971 15.4926 6.91379 16.2092 6.91375 17C6.9137 17.7906 6.47964 18.5071 5.80508 18.9278C5.3461 19.214 5.05038 19.4428 4.83997 19.7149C4.37903 20.3111 4.17561 21.0645 4.27444 21.8095C4.34856 22.3683 4.68111 22.94 5.34622 24.0833C6.01133 25.2266 6.34389 25.7982 6.79441 26.1413C7.39512 26.5987 8.15432 26.8006 8.90501 26.7025C9.24768 26.6578 9.59516 26.518 10.0744 26.2666C10.7787 25.8972 11.6211 25.8824 12.311 26.2777C13.0009 26.6731 13.4092 27.4044 13.439 28.1945C13.4593 28.7321 13.511 29.1006 13.6433 29.4175C13.933 30.1118 14.4888 30.6633 15.1884 30.9509C15.713 31.1666 16.3781 31.1666 17.7083 31.1666C19.0386 31.1666 19.7037 31.1666 20.2283 30.9509C20.9278 30.6633 21.4836 30.1118 21.7734 29.4175C21.9057 29.1006 21.9574 28.732 21.9777 28.1944C22.0074 27.4043 22.4157 26.6731 23.1055 26.2777C23.7955 25.8823 24.6378 25.8971 25.3422 26.2666C25.8214 26.5179 26.1689 26.6577 26.5115 26.7024C27.2622 26.8005 28.0214 26.5986 28.6221 26.1412C29.0726 25.7981 29.4052 25.2265 30.0703 24.0832C30.7354 22.9399 31.068 22.3682 31.1421 21.8094C31.2409 21.0644 31.0375 20.311 30.5766 19.7148C30.3662 19.4427 30.0705 19.2139 29.6115 18.9277C28.9369 18.5071 28.5029 17.7905 28.5029 16.9998C28.503 16.2092 28.937 15.4927 29.6115 15.0721C30.0705 14.7859 30.3663 14.5571 30.5767 14.2849C31.0376 13.6888 31.2411 12.9353 31.1422 12.1903C31.0681 11.6315 30.7356 11.0599 30.0704 9.91659C29.4053 8.77329 29.0728 8.20164 28.6222 7.85855C28.0215 7.4011 27.2623 7.19921 26.5117 7.29729C26.169 7.34206 25.8215 7.48184 25.3423 7.73321C24.6379 8.10267 23.7956 8.11744 23.1057 7.72211C22.4157 7.32678 22.0074 6.59544 21.9777 5.80533C21.9574 5.26776 21.9056 4.89922 21.7734 4.58232C21.4836 3.88807 20.9278 3.33649 20.2283 3.04893Z" fill="#76899B"/>
  <path d="M21.9905 17C21.9905 19.3472 20.0733 21.25 17.7082 21.25C15.3431 21.25 13.4258 19.3472 13.4258 17C13.4258 14.6528 15.3431 12.75 17.7082 12.75C20.0733 12.75 21.9905 14.6528 21.9905 17Z" fill="#76899B"/>
</svg>