<svg xmlns="http://www.w3.org/2000/svg" width="34" height="34" viewBox="0 0 34 34" fill="none">
  <path opacity="0.5" fill-rule="evenodd" clip-rule="evenodd" d="M20.2283 3.04917C19.7037 2.8335 19.0386 2.8335 17.7083 2.8335C16.3781 2.8335 15.713 2.8335 15.1884 3.04917C14.4888 3.33674 13.933 3.88831 13.6433 4.58256C13.511 4.89948 13.4593 5.26804 13.439 5.80565C13.4092 6.59571 13.001 7.32701 12.3111 7.72231C11.6212 8.11761 10.7789 8.10284 10.0746 7.7334C9.59534 7.482 9.24784 7.34221 8.90515 7.29744C8.15446 7.19935 7.39526 7.40124 6.79455 7.8587C6.34403 8.20178 6.01147 8.77343 5.34636 9.91673C4.68125 11.06 4.3487 11.6317 4.27457 12.1904C4.17574 12.9355 4.37917 13.6889 4.84011 14.2851C5.0505 14.5572 5.34618 14.7859 5.80508 15.0721C6.47971 15.4928 6.91379 16.2095 6.91375 17.0002C6.9137 17.7908 6.47964 18.5074 5.80508 18.928C5.3461 19.2142 5.05038 19.443 4.83997 19.7151C4.37903 20.3113 4.17561 21.0648 4.27444 21.8098C4.34856 22.3685 4.68111 22.9402 5.34622 24.0835C6.01133 25.2268 6.34389 25.7984 6.79441 26.1415C7.39512 26.599 8.15432 26.8009 8.90501 26.7028C9.24768 26.658 9.59516 26.5182 10.0744 26.2669C10.7787 25.8974 11.6211 25.8826 12.311 26.278C13.0009 26.6733 13.4092 27.4046 13.439 28.1948C13.4593 28.7323 13.511 29.1009 13.6433 29.4178C13.933 30.112 14.4888 30.6636 15.1884 30.9512C15.713 31.1668 16.3781 31.1668 17.7083 31.1668C19.0386 31.1668 19.7037 31.1668 20.2283 30.9512C20.9278 30.6636 21.4836 30.112 21.7734 29.4178C21.9057 29.1008 21.9574 28.7323 21.9777 28.1946C22.0074 27.4046 22.4157 26.6733 23.1055 26.278C23.7955 25.8826 24.6378 25.8973 25.3422 26.2668C25.8214 26.5182 26.1689 26.6579 26.5115 26.7027C27.2622 26.8008 28.0214 26.5989 28.6221 26.1414C29.0726 25.7983 29.4052 25.2267 30.0703 24.0834C30.7354 22.9401 31.068 22.3685 31.1421 21.8097C31.2409 21.0647 31.0375 20.3112 30.5766 19.715C30.3662 19.4429 30.0705 19.2142 29.6115 18.928C28.9369 18.5073 28.5029 17.7907 28.5029 17C28.503 16.2094 28.937 15.4929 29.6115 15.0723C30.0705 14.7861 30.3663 14.5573 30.5767 14.2852C31.0376 13.689 31.2411 12.9356 31.1422 12.1905C31.0681 11.6318 30.7356 11.0601 30.0704 9.91683C29.4053 8.77353 29.0728 8.20188 28.6222 7.85879C28.0215 7.40134 27.2623 7.19945 26.5117 7.29753C26.169 7.34231 25.8215 7.48209 25.3423 7.73346C24.6379 8.10292 23.7956 8.11769 23.1057 7.72236C22.4157 7.32703 22.0074 6.59568 21.9777 5.80558C21.9574 5.26801 21.9056 4.89946 21.7734 4.58256C21.4836 3.88831 20.9278 3.33674 20.2283 3.04917Z" fill="#7C55FB"/>
  <path d="M21.9905 17C21.9905 19.3472 20.0732 21.25 17.7081 21.25C15.3431 21.25 13.4258 19.3472 13.4258 17C13.4258 14.6528 15.3431 12.75 17.7081 12.75C20.0732 12.75 21.9905 14.6528 21.9905 17Z" fill="#7C55FB"/>
</svg>