<svg width="35" height="34" viewBox="0 0 35 34" fill="none" xmlns="http://www.w3.org/2000/svg">
<path d="M21.2083 31.1542V26.2082C21.2083 24.8841 21.2083 24.2221 20.9236 23.729C20.7371 23.406 20.4689 23.1377 20.1458 22.9512C19.6527 22.6665 18.9907 22.6665 17.6667 22.6665C16.3427 22.6665 15.6806 22.6665 15.1875 22.9512C14.8645 23.1377 14.5962 23.406 14.4097 23.729C14.125 24.2221 14.125 24.8841 14.125 26.2082V31.1542H21.2083Z" fill="#7C55FB"/>
<path opacity="0.5" fill-rule="evenodd" clip-rule="evenodd" d="M8.78705 17.0001C7.52512 17.0001 6.40875 16.4674 5.625 15.6301V19.8335C5.625 25.1761 5.625 27.8474 7.28473 29.5071C8.62077 30.8431 10.6123 31.1037 14.125 31.1545H21.2083C24.7211 31.1037 26.7126 30.8431 28.0486 29.5071C29.7083 27.8474 29.7083 25.1761 29.7083 19.8335V15.6316C28.9247 16.468 27.8089 17.0001 26.5477 17.0001C24.3212 17.0001 22.457 15.313 22.2354 13.0976L22.132 12.0664C22.3962 14.708 20.3218 17.0001 17.6671 17.0001C15.0303 17.0001 12.966 14.7389 13.1971 12.1199L13.0993 13.0976C12.8778 15.313 11.0135 17.0001 8.78705 17.0001ZM21.2083 26.2085V31.1545H14.125V26.2085C14.125 24.8845 14.125 24.2225 14.4097 23.7293C14.5962 23.4063 14.8645 23.1381 15.1875 22.9515C15.6806 22.6668 16.3427 22.6668 17.6667 22.6668C18.9907 22.6668 19.6527 22.6668 20.1458 22.9515C20.4689 23.1381 20.7371 23.4063 20.9236 23.7293C21.2083 24.2225 21.2083 24.8845 21.2083 26.2085Z" fill="#7C55FB"/>
<path d="M14.1247 2.8335H21.208L22.1313 12.0664C22.3955 14.708 20.3211 17.0002 17.6664 17.0002C15.0116 17.0002 12.9373 14.708 13.2014 12.0664L14.1247 2.8335Z" fill="#7C55FB"/>
<path opacity="0.7" d="M5.38386 7.58121C5.63614 6.31981 5.76228 5.68912 6.01875 5.17785C6.55917 4.10055 7.53158 3.30337 8.69394 2.98472C9.24558 2.8335 9.88876 2.8335 11.1751 2.8335H14.1251L13.0987 13.0976C12.8771 15.3131 11.0129 17.0002 8.7864 17.0002C6.0516 17.0002 4.00046 14.4982 4.5368 11.8165L5.38386 7.58121Z" fill="#7C55FB"/>
<path opacity="0.7" d="M29.9497 7.58121C29.6974 6.31981 29.5713 5.68912 29.3148 5.17785C28.7744 4.10055 27.802 3.30337 26.6396 2.98472C26.088 2.8335 25.4448 2.8335 24.1584 2.8335H21.2085L22.2349 13.0976C22.4565 15.3131 24.3207 17.0002 26.5472 17.0002C29.282 17.0002 31.3331 14.4982 30.7968 11.8165L29.9497 7.58121Z" fill="#7C55FB"/>
</svg>
