<svg xmlns="http://www.w3.org/2000/svg" width="35" height="34" viewBox="0 0 35 34" fill="none">
  <path d="M21.2083 31.1544V26.2084C21.2083 24.8844 21.2083 24.2224 20.9236 23.7292C20.7371 23.4062 20.4688 23.138 20.1458 22.9514C19.6527 22.6667 18.9907 22.6667 17.6667 22.6667C16.3426 22.6667 15.6806 22.6667 15.1875 22.9514C14.8644 23.138 14.5962 23.4062 14.4097 23.7292C14.125 24.2224 14.125 24.8844 14.125 26.2084V31.1544H21.2083Z" fill="#76899B"/>
  <path opacity="0.5" fill-rule="evenodd" clip-rule="evenodd" d="M8.78699 16.9999C7.52506 16.9999 6.40869 16.4672 5.62494 15.6299V19.8333C5.62494 25.1758 5.62494 27.8471 7.28467 29.5069C8.62071 30.8429 10.6122 31.1035 14.1249 31.1543H21.2083C24.721 31.1035 26.7125 30.8429 28.0485 29.5069C29.7083 27.8471 29.7083 25.1758 29.7083 19.8333V15.6314C28.9246 16.4678 27.8088 16.9999 26.5476 16.9999C24.3212 16.9999 22.4569 15.3128 22.2354 13.0974L22.132 12.0662C22.3961 14.7077 20.3218 16.9999 17.667 16.9999C15.0302 16.9999 12.966 14.7386 13.197 12.1197L13.0992 13.0974C12.8777 15.3128 11.0135 16.9999 8.78699 16.9999ZM21.2083 26.2083V31.1543H14.1249V26.2083C14.1249 24.8842 14.1249 24.2222 14.4096 23.7291C14.5961 23.4061 14.8644 23.1378 15.1874 22.9513C15.6805 22.6666 16.3426 22.6666 17.6666 22.6666C18.9907 22.6666 19.6527 22.6666 20.1458 22.9513C20.4688 23.1378 20.7371 23.4061 20.9236 23.7291C21.2083 24.2222 21.2083 24.8842 21.2083 26.2083Z" fill="#76899B"/>
  <path d="M14.1247 2.83325H21.208L22.1313 12.0662C22.3955 14.7078 20.3211 16.9999 17.6663 16.9999C15.0116 16.9999 12.9372 14.7078 13.2014 12.0662L14.1247 2.83325Z" fill="#76899B"/>
  <path opacity="0.7" d="M5.3838 7.58096C5.63608 6.31957 5.76222 5.68887 6.01869 5.17761C6.55911 4.10031 7.53151 3.30312 8.69388 2.98448C9.24551 2.83325 9.8887 2.83325 11.1751 2.83325H14.125L13.0986 13.0974C12.8771 15.3128 11.0128 16.9999 8.78634 16.9999C6.05154 16.9999 4.0004 14.4979 4.53674 11.8162L5.3838 7.58096Z" fill="#76899B"/>
  <path opacity="0.7" d="M29.9495 7.58096C29.6972 6.31957 29.5711 5.68887 29.3146 5.17761C28.7742 4.10031 27.8018 3.30312 26.6394 2.98448C26.0878 2.83325 25.4446 2.83325 24.1582 2.83325H21.2083L22.2347 13.0974C22.4562 15.3128 24.3205 16.9999 26.5469 16.9999C29.2817 16.9999 31.3329 14.4979 30.7965 11.8162L29.9495 7.58096Z" fill="#76899B"/>
</svg>